HIERARCHY
ROOT Hips
{
	OFFSET 0.000000 0.000000 0.000000
	CHANNELS 6 Xposition Yposition Zposition Zrotation Yrotation Xrotation 
	JOINT LHipJoint
	{
		OFFSET 0.000000 0.000000 0.000000
		CHANNELS 3 Zrotation Yrotation Xrotation
		JOINT LeftUpLeg
		{
			OFFSET 1.363060 -1.794630 0.839290
			CHANNELS 3 Zrotation Yrotation Xrotation
			JOINT LeftLeg
			{
				OFFSET 2.448110 -6.726130 0.000000
				CHANNELS 3 Zrotation Yrotation Xrotation
				JOINT LeftFoot
				{
					OFFSET 2.562200 -7.039590 0.000000
					CHANNELS 3 Zrotation Yrotation Xrotation
					JOINT LeftToeBase
					{
						OFFSET 0.157640 -0.433110 2.322550
						CHANNELS 3 Zrotation Yrotation Xrotation
						End Site
						{
							OFFSET 0.000000 0.000000 0.000000
						}
					}
				}
			}
		}
	}
	JOINT RHipJoint
	{
		OFFSET 0.000000 0.000000 0.000000
		CHANNELS 3 Zrotation Yrotation Xrotation
		JOINT RightUpLeg
		{
			OFFSET -1.305520 -1.794630 0.839290
			CHANNELS 3 Zrotation Yrotation Xrotation
			JOINT RightLeg
			{
				OFFSET -2.542530 -6.985550 0.000000
				CHANNELS 3 Zrotation Yrotation Xrotation
				JOINT RightFoot
				{
					OFFSET -2.568260 -7.056230 0.000000
					CHANNELS 3 Zrotation Yrotation Xrotation
					JOINT RightToeBase
					{
						OFFSET -0.164730 -0.452590 2.363150
						CHANNELS 3 Zrotation Yrotation Xrotation
						End Site
						{
							OFFSET 0.000000 0.000000 0.000000
						}
					}
				}
			}
		}
	}
	JOINT LowerBack
	{
		OFFSET 0.000000 0.000000 0.000000
		CHANNELS 3 Zrotation Yrotation Xrotation
		JOINT Spine
		{
			OFFSET 0.028270 2.035590 -0.193380
			CHANNELS 3 Zrotation Yrotation Xrotation
			JOINT Spine1
			{
				OFFSET 0.056720 2.048850 -0.042750
				CHANNELS 3 Zrotation Yrotation Xrotation
				JOINT Neck
				{
					OFFSET 0.000000 0.000000 0.000000
					CHANNELS 3 Zrotation Yrotation Xrotation
					JOINT Neck1
					{
						OFFSET -0.054170 1.746240 0.172020
						CHANNELS 3 Zrotation Yrotation Xrotation
						JOINT Head
						{
							OFFSET 0.104070 1.761360 -0.123970
							CHANNELS 3 Zrotation Yrotation Xrotation
							End Site
							{
								OFFSET 0.000000 0.000000 0.000000
							}
						}
					}
				}
				JOINT LeftShoulder
				{
					OFFSET 0.000000 0.000000 0.000000
					CHANNELS 3 Zrotation Yrotation Xrotation
					JOINT LeftArm
					{
						OFFSET 3.362410 1.200890 -0.311210
						CHANNELS 3 Zrotation Yrotation Xrotation
						JOINT LeftForeArm
						{
							OFFSET 4.983000 -0.000000 -0.000000
							CHANNELS 3 Zrotation Yrotation Xrotation
							JOINT LeftHand
							{
								OFFSET 3.483560 -0.000000 -0.000000
								CHANNELS 3 Zrotation Yrotation Xrotation
								JOINT LeftFingerBase
								{
									OFFSET 0.000000 0.000000 0.000000
									CHANNELS 3 Zrotation Yrotation Xrotation
									JOINT LeftHandIndex1
									{
										OFFSET 0.715260 -0.000000 -0.000000
										CHANNELS 3 Zrotation Yrotation Xrotation
										End Site
										{
											OFFSET 0.000000 0.000000 0.000000
										}
									}
								}
								JOINT LThumb
								{
									OFFSET 0.000000 0.000000 0.000000
									CHANNELS 3 Zrotation Yrotation Xrotation
									End Site
									{
										OFFSET 0.000000 0.000000 0.000000
									}
								}
							}
						}
					}
				}
				JOINT RightShoulder
				{
					OFFSET 0.000000 0.000000 0.000000
					CHANNELS 3 Zrotation Yrotation Xrotation
					JOINT RightArm
					{
						OFFSET -3.136600 1.374050 -0.404650
						CHANNELS 3 Zrotation Yrotation Xrotation
						JOINT RightForeArm
						{
							OFFSET -5.241900 -0.000000 -0.000000
							CHANNELS 3 Zrotation Yrotation Xrotation
							JOINT RightHand
							{
								OFFSET -3.444170 -0.000000 -0.000000
								CHANNELS 3 Zrotation Yrotation Xrotation
								JOINT RightFingerBase
								{
									OFFSET 0.000000 0.000000 0.000000
									CHANNELS 3 Zrotation Yrotation Xrotation
									JOINT RightHandIndex1
									{
										OFFSET -0.622530 -0.000000 -0.000000
										CHANNELS 3 Zrotation Yrotation Xrotation
										End Site
										{
											OFFSET 0.000000 0.000000 0.000000
										}
									}
								}
								JOINT RThumb
								{
									OFFSET 0.000000 0.000000 0.000000
									CHANNELS 3 Zrotation Yrotation Xrotation
									End Site
									{
										OFFSET 0.000000 0.000000 0.000000
									}
								}
							}
						}
					}
				}
			}
		}
	}
}
MOTION
Frames: 7
Frame Time: 0.008333
42.715990 17.799465 5.678779 -118.313779 -83.083599 130.217840 -0.901421 -1.094961 -1.162377 -9.309101 -8.149598 -11.680758 -0.123073 5.063104 12.659734 -1.002719 7.388761 0.066085 0.015800 0.812000 2.231700 0.037138 1.274362 -1.877759 27.500912 4.720288 -12.939591 -0.273484 -5.344616 13.516571 1.110156 -8.993161 -2.312708 -1.032100 -6.461800 18.130400 5.374437 -1.506670 2.103559 2.200537 -1.788236 -4.745842 5.442363 -1.168429 -0.831614 -10.383268 -8.104924 -8.829824 6.675541 -9.721236 5.327969 3.358800 -4.903400 5.801300 5.628672 2.823689 1.010421 -89.151113 12.444967 28.578061 22.623943 -40.787385 -6.492584 -1.744682 3.401505 0.341829 -8.171942 29.841027 -2.860400 -7.125000 0.000000 0.000000 -36.846800 52.554000 -7.698200 -3.006900 -3.208834 -1.643006 78.853916 1.689247 24.995566 -14.903858 28.925766 -4.148147 -0.605259 0.263146 1.674518 -15.220970 -21.674888 5.576000 7.125000 0.000000 0.000000 14.513300 -52.057600 -2.566300 
42.701559 17.799664 5.679973 -118.699017 -83.074280 130.646033 -0.898118 -1.088180 -1.160959 -9.346030 -8.081354 -11.579200 -0.136918 5.006097 12.495833 -0.996372 7.361359 0.066094 0.016300 0.823600 2.263600 0.040158 1.282609 -1.888120 27.478602 4.774589 -12.941179 -0.278468 -5.368477 13.583892 1.109801 -8.985568 -2.386993 -1.024500 -6.438900 18.063300 5.478367 -1.502162 1.968445 2.139320 -1.785859 -4.708502 5.238268 -1.177839 -0.658810 -10.226601 -8.083646 -9.175315 6.877799 -9.671778 5.134261 3.398000 -4.848900 5.793900 5.665752 2.808792 1.006887 -89.028680 12.941365 31.099778 21.254646 -39.742846 -6.082494 -0.090504 3.312311 8.045435 5.563608 26.758223 2.456500 -7.125000 0.000000 0.000000 -23.342600 52.011000 -4.219200 -3.041344 -3.187347 -1.632311 79.097816 1.595447 25.158621 -14.833191 28.852360 -4.120731 -0.603751 0.267986 1.845053 -15.175735 -21.428671 5.500000 7.125000 0.000000 0.000000 14.451200 -51.810100 -2.466100 
42.687825 17.800162 5.679874 -119.400815 -83.108707 131.352702 -0.902077 -1.077139 -1.146190 -9.434478 -8.029369 -11.477565 -0.148102 4.959063 12.362045 -0.991084 7.340608 0.087157 0.017500 0.855100 2.350200 0.041836 1.287015 -1.885230 27.395273 4.756498 -12.913713 -0.278984 -5.365813 13.582949 1.107733 -8.971602 -2.379212 -1.023700 -6.436500 18.056300 5.427755 -1.491459 1.942461 2.116504 -1.765819 -4.763973 5.205422 -1.169324 -0.788109 -10.227036 -8.013436 -9.061374 7.008070 -9.578110 4.951421 3.455500 -4.797400 5.708700 5.661406 2.803436 1.002740 -89.032889 13.120448 31.377338 21.176739 -39.679819 -6.062491 0.000165 3.308662 8.314344 6.369562 26.826407 2.757200 -7.125000 0.000000 0.000000 -22.682500 52.185800 -4.189400 -3.039287 -3.179572 -1.636268 79.161201 1.154932 25.303187 -14.764578 28.767881 -4.089464 -0.603223 0.270163 1.841835 -15.118250 -21.352801 5.460000 7.125000 0.000000 0.000000 14.474900 -51.727400 -2.440600 
42.673196 17.800162 5.680471 -119.748638 -83.149316 131.717674 -0.911334 -1.076946 -1.142297 -9.502095 -7.990488 -11.384583 -0.157837 4.917787 12.245235 -0.982430 7.303613 0.118284 0.018300 0.873200 2.400100 0.034830 1.286091 -1.889181 27.344552 4.798935 -12.893020 -0.283728 -5.387987 13.645779 1.114700 -9.006519 -2.451290 -1.015200 -6.410400 17.980000 5.170112 -1.552656 1.668930 2.207104 -1.876910 -4.739515 5.594427 -1.219017 -0.578498 -10.372511 -7.849540 -8.931684 7.079415 -9.330057 4.604670 3.530200 -4.678500 5.535600 5.706845 2.808014 1.028056 -89.527751 13.233944 31.138198 21.094706 -39.635672 -6.021467 0.320344 2.997669 8.599158 9.886737 22.859754 3.434500 -7.125000 0.000000 0.000000 -17.911700 49.197600 -1.909600 -3.035520 -3.173757 -1.632116 78.917192 0.997402 25.551041 -14.637434 28.613537 -4.047716 -0.590761 0.286690 2.074316 -14.821493 -20.421890 5.132500 7.125000 0.000000 0.000000 14.367200 -50.774000 -2.081000 
42.659263 17.800062 5.680869 -119.235768 -83.145966 131.199378 -0.905171 -1.074134 -1.139336 -9.467424 -7.957521 -11.331001 -0.160812 4.902532 12.207838 -0.965878 7.224872 0.168271 0.018000 0.865200 2.377900 0.039815 1.285348 -1.887980 27.382439 4.698240 -12.871915 -0.283432 -5.386574 13.641003 1.111976 -8.990202 -2.458801 -1.018900 -6.421800 18.013200 5.316422 -1.539653 1.722981 2.155039 -1.849728 -4.753082 5.370558 -1.211325 -0.632489 -10.194037 -7.839454 -9.205978 7.148001 -9.309916 4.542814 3.518100 -4.650800 5.566800 5.681133 2.813004 1.014875 -89.412654 13.223686 31.144161 21.246431 -39.757938 -6.072786 0.160332 3.113454 8.027462 8.402343 24.196241 3.148800 -7.125000 0.000000 0.000000 -19.713200 50.180900 -2.606300 -3.038905 -3.183026 -1.636036 79.168066 0.752843 25.653434 -14.546298 28.496274 -4.002485 -0.592368 0.288669 2.056859 -14.948166 -20.398937 5.174600 7.125000 0.000000 0.000000 14.239000 -50.774400 -2.061900 
42.645429 17.800262 5.681566 -119.241482 -83.173221 131.213149 -0.905764 -1.072211 -1.136761 -9.502863 -7.921045 -11.267230 -0.166415 4.878065 12.140180 -0.953885 7.168963 0.197150 0.018200 0.871900 2.396500 0.039849 1.286205 -1.890217 27.355328 4.650998 -12.857563 -0.284881 -5.393055 13.659967 1.111103 -8.982877 -2.484312 -1.016300 -6.413800 17.989800 5.275374 -1.550516 1.625530 2.156186 -1.871418 -4.744006 5.397100 -1.223154 -0.551983 -10.151672 -7.775223 -9.335961 7.231185 -9.206745 4.366502 3.544900 -4.589500 5.520200 5.686178 2.819284 1.015340 -89.517137 13.263412 31.311843 21.167807 -39.716099 -6.063510 0.308827 3.062919 8.465387 9.794622 23.725846 3.539700 -7.125000 0.000000 0.000000 -18.329200 49.951900 -2.306000 -3.042333 -3.185069 -1.634613 79.225282 0.570547 25.788302 -14.437269 28.358658 -3.956619 -0.588921 0.294568 2.134041 -14.867691 -20.091141 5.073800 7.125000 0.000000 0.000000 14.191600 -50.462500 -1.944500 
42.631795 17.800361 5.682163 -119.140272 -83.203540 131.118209 -0.905814 -1.071613 -1.135628 -9.535623 -7.889011 -11.215820 -0.170270 4.861884 12.095906 -0.941287 7.109671 0.223648 0.018400 0.875200 2.405400 0.039962 1.286373 -1.892244 27.331046 4.587839 -12.843530 -0.286044 -5.397970 13.674171 1.109610 -8.972418 -2.507258 -1.014200 -6.407400 17.971100 5.232314 -1.560085 1.530932 2.159014 -1.891655 -4.730971 5.430024 -1.233973 -0.461517 -10.107784 -7.715377 -9.485900 7.304388 -9.108581 4.203715 3.566900 -4.530900 5.482100 5.690415 2.828614 1.015853 -89.625445 13.245083 31.361430 21.165098 -39.732824 -6.068322 0.356642 3.041212 8.476471 10.310441 23.457867 3.664400 -7.125000 0.000000 0.000000 -17.780800 49.778700 -2.155400 -3.045533 -3.190117 -1.633251 79.285804 0.409428 25.899937 -14.318426 28.206071 -3.906167 -0.585452 0.299598 2.198605 -14.759821 -19.802869 4.968000 7.125000 0.000000 0.000000 14.179400 -50.164800 -1.837500 
